<svg xmlns="http://www.w3.org/2000/svg" viewBox="0 0 512 512">
  <rect width="512" height="512" rx="96" fill="#0f766e"/>
  <g fill="#ffffff">
    <path d="M120 296c0-18 8-50 22-78 8-16 20-26 38-26h152c18 0 30 10 38 26 14 28 22 60 22 78v60a12 12 0 0 1-12 12h-20a12 12 0 0 1-12-12v-16H164v16a12 12 0 0 1-12 12h-20a12 12 0 0 1-12-12z"/>
    <circle cx="180" cy="300" r="22" fill="#0f766e"/>
    <circle cx="332" cy="300" r="22" fill="#0f766e"/>
    <rect x="150" y="210" width="212" height="14" rx="7" fill="#0f766e"/>
  </g>
</svg>
